<svg width="50" height="30" viewBox="0 0 50 30" fill="none" xmlns="http://www.w3.org/2000/svg">
    <path d="M33.9609 0H27.25C26.625 0 26.0234 0.23429 25.5625 0.656012L17.8828 7.68471C17.875 7.69252 17.8672 7.70814 17.8594 7.71595C16.5625 8.93426 16.5859 10.8789 17.6953 12.0894C18.6875 13.1749 20.7734 13.4639 22.0781 12.3002C22.0859 12.2924 22.1016 12.2924 22.1094 12.2846L28.3516 6.56793C28.8594 6.10716 29.6562 6.1384 30.1172 6.64603C30.5859 7.15366 30.5469 7.94243 30.0391 8.41101L28 10.2775L39.375 19.5085C39.6016 19.696 39.8047 19.899 39.9922 20.1099V4.99819L35.7266 0.734109C35.2656 0.265529 34.625 0 33.9609 0ZM42.5 5.01381V22.4997C42.5 23.882 43.6172 24.9987 45 24.9987H50V5.01381H42.5ZM46.25 22.4997C45.5625 22.4997 45 21.9374 45 21.2501C45 20.5629 45.5625 20.0006 46.25 20.0006C46.9375 20.0006 47.5 20.5629 47.5 21.2501C47.5 21.9374 46.9375 22.4997 46.25 22.4997ZM0 24.9909H5C6.38281 24.9909 7.5 23.8742 7.5 22.4918V5.01381H0V24.9909ZM3.75 20.0006C4.4375 20.0006 5 20.5629 5 21.2501C5 21.9374 4.4375 22.4997 3.75 22.4997C3.0625 22.4997 2.5 21.9374 2.5 21.2501C2.5 20.555 3.0625 20.0006 3.75 20.0006ZM37.8047 21.4532L26.1406 11.9878L23.7969 14.1355C21.4766 16.2519 17.9219 16.0489 15.8516 13.7919C13.75 11.4958 13.9141 7.94243 16.1953 5.84944L22.5859 0H16.0391C15.375 0 14.7422 0.265529 14.2734 0.734109L10 4.99819V22.484H11.4297L18.5 28.8801C20.6406 30.6217 23.7891 30.2937 25.5312 28.1539L25.5469 28.1382L26.9453 29.3487C28.1875 30.364 30.0234 30.1687 31.0312 28.927L33.4844 25.9125L33.9062 26.2561C34.9766 27.123 36.5547 26.9668 37.4219 25.889L38.1641 24.9753C39.0391 23.8976 38.875 22.3278 37.8047 21.4532Z" fill="white"/>
    </svg>
    