<svg width="33" height="44" viewBox="0 0 33 44" fill="none" xmlns="http://www.w3.org/2000/svg">
    <g clip-path="url(#clip0_1_228)">
    <path d="M5.5 39.875C4.74375 39.875 4.125 39.2562 4.125 38.5V5.5C4.125 4.74375 4.74375 4.125 5.5 4.125H19.25V11C19.25 12.5211 20.4789 13.75 22 13.75H28.875V38.5C28.875 39.2562 28.2563 39.875 27.5 39.875H5.5ZM5.5 0C2.46641 0 0 2.46641 0 5.5V38.5C0 41.5336 2.46641 44 5.5 44H27.5C30.5336 44 33 41.5336 33 38.5V13.2773C33 11.8164 32.4242 10.4156 31.393 9.38437L23.607 1.60703C22.5758 0.575781 21.1836 0 19.7227 0H5.5ZM10.3125 22C9.16953 22 8.25 22.9195 8.25 24.0625C8.25 25.2055 9.16953 26.125 10.3125 26.125H22.6875C23.8305 26.125 24.75 25.2055 24.75 24.0625C24.75 22.9195 23.8305 22 22.6875 22H10.3125ZM10.3125 30.25C9.16953 30.25 8.25 31.1695 8.25 32.3125C8.25 33.4555 9.16953 34.375 10.3125 34.375H22.6875C23.8305 34.375 24.75 33.4555 24.75 32.3125C24.75 31.1695 23.8305 30.25 22.6875 30.25H10.3125Z" fill="white"/>
    </g>
    <defs>
    <clipPath id="clip0_1_228">
    <rect width="33" height="44" fill="white"/>
    </clipPath>
    </defs>
    </svg>
    