<svg width="55" height="44" viewBox="0 0 55 44" fill="none" xmlns="http://www.w3.org/2000/svg">
    <g clip-path="url(#clip0_1_245)">
        <path
            d="M10.5016 0C7.88046 0 5.6289 1.84766 5.11327 4.41719L0.713273 26.4172C0.0343667 29.8203 2.62968 33 6.10155 33H24.75V38.5H19.25C17.7289 38.5 16.5 39.7289 16.5 41.25C16.5 42.7711 17.7289 44 19.25 44H35.75C37.2711 44 38.5 42.7711 38.5 41.25C38.5 39.7289 37.2711 38.5 35.75 38.5H30.25V33H48.8984C52.3703 33 54.9742 29.8289 54.2953 26.4172L49.8953 4.41719C49.3711 1.84766 47.1195 0 44.4984 0H10.5016ZM22.4211 5.5H32.5789L33.4726 14.4375H21.5273L22.4211 5.5ZM17.3851 14.4375H8.71405L10.5016 5.5H18.2703L17.3851 14.4375ZM7.88905 18.5625H16.9726L16.0789 27.5H6.10155L7.88905 18.5625ZM21.1148 18.5625H33.8851L34.7789 27.5H20.2211L21.1148 18.5625ZM38.0273 18.5625H47.1109L48.8984 27.5H38.9297L38.0273 18.5625ZM46.2773 14.4375H37.6148L36.7211 5.5H44.4898L47.1883 4.95859L44.4984 5.5L46.2859 14.4375H46.2773Z"
            fill="white" />
    </g>
    <defs>
        <clipPath id="clip0_1_245">
            <rect width="55" height="44" fill="white" />
        </clipPath>
    </defs>
</svg>