<svg width="34" height="34" viewBox="0 0 34 34" fill="none" xmlns="http://www.w3.org/2000/svg">
    <g clip-path="url(#clip0_1_256)">
        <path
            d="M7.26916 16.2064L16.2061 7.27082L13.2763 4.34098L9.18034 8.43691C9.13149 8.48585 9.07347 8.52468 9.00961 8.55117C8.94574 8.57766 8.87727 8.5913 8.80813 8.5913C8.73899 8.5913 8.67052 8.57766 8.60665 8.55117C8.54278 8.52468 8.48477 8.48585 8.43592 8.43691L7.69151 7.6925C7.48565 7.48664 7.48565 7.15328 7.69151 6.94809L11.7874 2.85215L9.55354 0.617578C8.73077 -0.205195 7.39733 -0.205195 6.57455 0.617578L0.61725 6.57488C-0.204859 7.39766 -0.205523 8.73109 0.61725 9.55387L7.26916 16.2064ZM33.066 8.4502C34.3118 7.20441 34.3111 5.185 33.066 3.93922L30.0611 0.934336C28.8153 -0.311445 26.7953 -0.311445 25.5488 0.934336L22.4928 3.98969L30.01 11.5069L33.066 8.4502ZM20.99 5.49312L1.26737 25.2131L0.0215859 32.3478C-0.146422 33.31 0.691625 34.1481 1.65452 33.9788L8.78987 32.7277L28.5072 13.0096L20.99 5.49312ZM33.3834 24.4475L31.1495 22.2136L27.0536 26.3095C26.8477 26.5154 26.5144 26.5154 26.3092 26.3095L25.5648 25.5651C25.3596 25.3592 25.3596 25.0259 25.5648 24.8207L29.6607 20.7247L26.7295 17.7936L17.7926 26.7292L24.4471 33.3831C25.2699 34.2059 26.6033 34.2059 27.4261 33.3831L33.3834 27.4264C34.2062 26.6037 34.2062 25.2702 33.3834 24.4475Z"
            fill="#FCFCFC" />
    </g>
    <defs>
        <clipPath id="clip0_1_256">
            <rect width="34" height="34" fill="white" />
        </clipPath>
    </defs>
</svg>