<svg width="35" height="35" viewBox="0 0 35 35" fill="none" xmlns="http://www.w3.org/2000/svg">
    <g clip-path="url(#clip0_1_224)">
        <path
            d="M9.33789 9.48765C8.65133 9.6817 8.02265 10.0407 7.50662 10.5334C6.99058 11.0261 6.60287 11.6375 6.37725 12.3143L0 31.4454L1.0042 32.4496L11.2656 22.1881C11.0612 21.7602 10.9375 21.2872 10.9375 20.7813C10.9375 18.9691 12.4065 17.5 14.2188 17.5C16.031 17.5 17.5 18.9691 17.5 20.7813C17.5 22.5935 16.031 24.0625 14.2188 24.0625C13.7129 24.0625 13.2398 23.9388 12.8119 23.7344L2.55049 33.9958L3.55469 35L22.6857 28.6228C23.3626 28.3972 23.974 28.0095 24.4667 27.4934C24.9593 26.9774 25.3183 26.3487 25.5124 25.6622L28.4375 15.3125L19.6875 6.56255L9.33789 9.48765ZM34.0389 5.07026L29.9298 0.961182C28.648 -0.320557 26.5692 -0.320557 25.2875 0.961182L21.4218 4.8269L30.1731 13.5783L34.0389 9.71255C35.3206 8.43081 35.3206 6.35269 34.0389 5.07026Z"
            fill="white" />
    </g>
    <defs>
        <clipPath id="clip0_1_224">
            <rect width="35" height="35" fill="white" />
        </clipPath>
    </defs>
</svg>